<?xml version="1.0" encoding="utf-8"?>
<?xml-stylesheet type="text/xsl" href="rss1.xsl"?>
<rss version="2.0" xmlns:atom="http://www.w3.org/2005/Atom" xmlns:content="http://purl.org/rss/1.0/modules/content/" xmlns:dc="http://purl.org/dc/elements/1.1/" xmlns:media="http://search.yahoo.com/mrss/">
<channel>
 <title>Getty</title>
 <link>http://www.gettyimg.com/</link>
 <atom:link href="http://www.gettyimg.com/" rel="self" type="application/rss+xml" />

 
                <item>
                <title><![CDATA[【Apple Music】WEB-RiP - Margaret - Może zaczniemy w Święta (1080p)]]></title>
                <link><![CDATA[https://sharemania.us/threads/margaret-mo%C5%BCe-zaczniemy-w-%C5%9Awi%C4%99ta-1080p.242449/]]></link>
                <description><![CDATA[<article>
<blockquote class="messageText SelectQuoteContainer ugc baseHtml">
<img src="https://i.postimg.cc/cHFLHdn1/Margaret-Mo-e-zaczniemy-w-wi-ta-mp4.jpg" class="bbCodeImage LbImage" alt="[​IMG]" data-url="https://i.postimg.cc/cHFLHdn1/Margaret-Mo-e-zaczniemy-w-wi-ta-mp4.jpg" style=""><br>
<br>
<div class="bbCodeBlock bbCodeCode">
<div class="type">Code:</div>
<pre>General
Complete name                  : G:\Новая папка\Margaret - Może zaczniemy w Święta.mp4
Format                         : MPEG-4
Format profile                 : Base Media
Codec ID                       : isom (isom/iso2/avc1/mp41)
File size                      : 181 MiB
Duration                       : 2 min 28 s
Overall bit rate               : 10.2 Mb/s
Frame rate                     : 25.000 FPS
Movie name                     : Może zaczniemy w Święta (Official Video)
Performer                      : Margaret
Genre                          : Pop
ContentType                    : Music Video
Recorded date                  : 2023-12-02 08:00:00 UTC
Writing application            : Lavf56.30.100
Copyright                      : ℗ (C) 2023 Sony Music Entertainment Poland Sp. z o.o. na wylacznej licencji Gaja Hornby Records

Video
ID                             : 1
Format                         : AVC
Format/Info                    : Advanced Video Codec
Format profile                 : High@L4
Format settings                : CABAC / 4 Ref Frames
Format settings, CABAC         : Yes
Format settings, Reference fra : 4 frames
Format settings, Slice count   : 8 slices per frame
Codec ID                       : avc1
Codec ID/Info                  : Advanced Video Coding
Duration                       : 2 min 28 s
Bit rate                       : 9 952 kb/s
Width                          : 1 920 pixels
Height                         : 1 080 pixels
Display aspect ratio           : 16:9
Frame rate mode                : Constant
Frame rate                     : 25.000 FPS
Color space                    : YUV
Chroma subsampling             : 4:2:0
Bit depth                      : 8 bits
Scan type                      : Progressive
Bits/(Pixel*Frame)             : 0.192
Stream size                    : 176 MiB (97%)
Color range                    : Limited
Color primaries                : BT.709
Transfer characteristics       : BT.709
Matrix coefficients            : BT.709
Codec configuration box        : avcC

Audio
ID                             : 2
Format                         : AAC LC
Format/Info                    : Advanced Audio Codec Low Complexity
Codec ID                       : mp4a-40-2
Duration                       : 2 min 28 s
Duration_LastFrame             : -4 ms
Bit rate mode                  : Constant
Bit rate                       : 265 kb/s
Channel(s)                     : 2 channels
Channel layout                 : L R
Sampling rate                  : 48.0 kHz
Frame rate                     : 46.875 FPS (1024 SPF)
Compression mode               : Lossy
Stream size                    : 4.64 MiB (3%)
Default                        : Yes
Alternate group                : 1

</pre>
</div>
<div class="bbCodeBlock bbCodeVfcHH HiddenContent">
<div class="attribution type">Hidden Content:</div>
<blockquote>You must either reply or click 'Like' to see the hidden information contained here.</blockquote>
</div>
<div class="messageTextEndMarker">&nbsp;</div>
</blockquote>
</article>]]></description>
                <author><![CDATA[vitalya3]]></author>
                </item>

                
                <item>
                <title><![CDATA[【Apple Music】WEB-RiP - Margaret - Cool Me Down (1080p)]]></title>
                <link><![CDATA[https://sharemania.us/threads/margaret-cool-me-down-1080p.242446/]]></link>
                <description><![CDATA[<article>
<blockquote class="messageText SelectQuoteContainer ugc baseHtml">
<img src="https://i.postimg.cc/K8d71zQc/Margaret-Cool-Me-Down-mp4.jpg" class="bbCodeImage LbImage" alt="[​IMG]" data-url="https://i.postimg.cc/K8d71zQc/Margaret-Cool-Me-Down-mp4.jpg" style=""><br>
<br>
<div class="bbCodeBlock bbCodeCode">
<div class="type">Code:</div>
<pre>General
Complete name                  : G:\Новая папка\Margaret - Cool Me Down.mp4
Format                         : MPEG-4
Format profile                 : Base Media
Codec ID                       : isom (isom/iso2/avc1/mp41)
File size                      : 218 MiB
Duration                       : 3 min 0 s
Overall bit rate               : 10.1 Mb/s
Frame rate                     : 25.000 FPS
Movie name                     : Cool Me Down
Performer                      : Margaret
Genre                          : Pop
ContentType                    : Music Video
Recorded date                  : 2016-05-24 07:00:00 UTC
Writing application            : Lavf56.30.100
Copyright                      : ℗ 2016 Warner Music Sweden AB under exclusive license from Extensive Music DMCC

Video
ID                             : 1
Format                         : AVC
Format/Info                    : Advanced Video Codec
Format profile                 : High@L4
Format settings                : CABAC / 5 Ref Frames
Format settings, CABAC         : Yes
Format settings, Reference fra : 5 frames
Format settings, GOP           : N=1
Format settings, Slice count   : 8 slices per frame
Codec ID                       : avc1
Codec ID/Info                  : Advanced Video Coding
Duration                       : 3 min 0 s
Bit rate                       : 9 850 kb/s
Width                          : 1 920 pixels
Height                         : 800 pixels
Display aspect ratio           : 2.40:1
Frame rate mode                : Constant
Frame rate                     : 25.000 FPS
Color space                    : YUV
Chroma subsampling             : 4:2:0
Bit depth                      : 8 bits
Scan type                      : Progressive
Bits/(Pixel*Frame)             : 0.257
Stream size                    : 212 MiB (97%)
Color range                    : Limited
Color primaries                : BT.709
Transfer characteristics       : BT.709
Matrix coefficients            : BT.709
Codec configuration box        : avcC

Audio
ID                             : 2
Format                         : AAC LC
Format/Info                    : Advanced Audio Codec Low Complexity
Codec ID                       : mp4a-40-2
Duration                       : 3 min 0 s
Duration_LastFrame             : -7 ms
Bit rate mode                  : Constant
Bit rate                       : 250 kb/s
Channel(s)                     : 2 channels
Channel layout                 : L R
Sampling rate                  : 48.0 kHz
Frame rate                     : 46.875 FPS (1024 SPF)
Compression mode               : Lossy
Stream size                    : 5.39 MiB (2%)
Default                        : Yes
Alternate group                : 1

</pre>
</div>
<div class="bbCodeBlock bbCodeVfcHH HiddenContent">
<div class="attribution type">Hidden Content:</div>
<blockquote>You must either reply or click 'Like' to see the hidden information contained here.</blockquote>
</div><img src="https://drive.google.com/file/d/1zOoya_DJR6tHjuoYawuOrY1cK3TyWP9y/view?usp=sharing" class="bbCodeImage LbImage" alt="[​IMG]" data-url="https://drive.google.com/file/d/1zOoya_DJR6tHjuoYawuOrY1cK3TyWP9y/view?usp=sharing" style="">
<div class="messageTextEndMarker">&nbsp;</div>
</blockquote>
</article>]]></description>
                <author><![CDATA[vitalya3]]></author>
                </item>

                
                <item>
                <title><![CDATA[【Apple Music】WEB-RiP - Margaret &amp; Alvaro Soler - Hot Like Summer WAW (1080p)]]></title>
                <link><![CDATA[https://sharemania.us/threads/margaret-alvaro-soler-hot-like-summer-waw-1080p.242447/]]></link>
                <description><![CDATA[<article>
<blockquote class="messageText SelectQuoteContainer ugc baseHtml">
<img src="https://i.postimg.cc/VNjWCC7s/Margaret-Alvaro-Soler-Hot-Like-Summer-WAW-mp4.jpg" class="bbCodeImage LbImage" alt="[​IMG]" data-url="https://i.postimg.cc/VNjWCC7s/Margaret-Alvaro-Soler-Hot-Like-Summer-WAW-mp4.jpg" style=""><br>
<br>
<div class="bbCodeBlock bbCodeCode">
<div class="type">Code:</div>
<pre>General
Complete name                  : G:\Новая папка\Margaret &amp; Alvaro Soler - Hot Like Summer WAW.mp4
Format                         : MPEG-4
Format profile                 : Base Media
Codec ID                       : isom (isom/iso2/avc1/mp41)
File size                      : 214 MiB
Duration                       : 2 min 56 s
Overall bit rate               : 10.2 Mb/s
Frame rate                     : 25.000 FPS
Movie name                     : Hot Like Summer WAW
Performer                      : Margaret &amp; Alvaro Soler
Genre                          : Pop
ContentType                    : Music Video
Recorded date                  : 2024-01-13 08:00:00 UTC
Writing application            : Lavf56.30.100
Copyright                      : ℗ (C) 2024 Sony Music Entertainment Poland Sp. z o.o. na wylacznej licencji Gaja Hornby Records

Video
ID                             : 1
Format                         : AVC
Format/Info                    : Advanced Video Codec
Format profile                 : High@L4
Format settings                : CABAC / 4 Ref Frames
Format settings, CABAC         : Yes
Format settings, Reference fra : 4 frames
Format settings, GOP           : M=2, N=99
Format settings, Slice count   : 8 slices per frame
Codec ID                       : avc1
Codec ID/Info                  : Advanced Video Coding
Duration                       : 2 min 56 s
Bit rate                       : 9 913 kb/s
Width                          : 1 920 pixels
Height                         : 1 080 pixels
Display aspect ratio           : 16:9
Frame rate mode                : Constant
Frame rate                     : 25.000 FPS
Color space                    : YUV
Chroma subsampling             : 4:2:0
Bit depth                      : 8 bits
Scan type                      : Progressive
Bits/(Pixel*Frame)             : 0.191
Stream size                    : 208 MiB (97%)
Color range                    : Limited
Color primaries                : BT.709
Transfer characteristics       : BT.709
Matrix coefficients            : BT.709
Codec configuration box        : avcC

Audio
ID                             : 2
Format                         : AAC LC
Format/Info                    : Advanced Audio Codec Low Complexity
Codec ID                       : mp4a-40-2
Duration                       : 2 min 56 s
Duration_LastFrame             : -1 ms
Bit rate mode                  : Constant
Bit rate                       : 265 kb/s
Channel(s)                     : 2 channels
Channel layout                 : L R
Sampling rate                  : 48.0 kHz
Frame rate                     : 46.875 FPS (1024 SPF)
Compression mode               : Lossy
Stream size                    : 5.55 MiB (3%)
Default                        : Yes
Alternate group                : 1

</pre>
</div>
<div class="bbCodeBlock bbCodeVfcHH HiddenContent">
<div class="attribution type">Hidden Content:</div>
<blockquote>You must either reply or click 'Like' to see the hidden information contained here.</blockquote>
</div>
<div class="messageTextEndMarker">&nbsp;</div>
</blockquote>
</article>]]></description>
                <author><![CDATA[vitalya3]]></author>
                </item>

                
                <item>
                <title><![CDATA[【Apple Music】WEB-RiP - Jennifer Lopez - Rebound [Apple HD Music Video]]]></title>
                <link><![CDATA[https://sharemania.us/threads/jennifer-lopez-rebound-apple-hd-music-video.242448/]]></link>
                <description><![CDATA[<article>
<blockquote class="messageText SelectQuoteContainer ugc baseHtml">
<span style="font-size: 22px"><b>Jennifer Lopez - Rebound [Apple HD Music Video]</b></span><br>
<br>
<img src="https://imgur.com/xtujMYy.jpg" class="bbCodeImage LbImage" alt="[​IMG]" data-url="https://imgur.com/xtujMYy.jpg" style=""><br>
<br>
<div class="bbCodeBlock bbCodeCode">
<div class="type">Code:</div>
<pre>General
Format                         : MPEG-4
Codec ID                       : M4V  (isom/iso4/M4V /mp42)
File size                      : 160 MiB
Duration                       : 3 min 17 s
Overall bit rate mode          : Variable
Overall bit rate               : 6 801 kb/s
Movie name                     : Rebound
Performer                      : Jennifer Lopez
Genre                          : Pop
ContentType                    : Music Video
Recorded date                  : UTC 2024-02-21 08:00:00
Encoded date                   : UTC 2024-03-13 08:40:59
Tagged date                    : UTC 2024-03-13 08:40:59
Copyright                      : ℗ 2024 Nuyorican Productions, Inc. under exclusive license to BMG Rights Management (US) LLC.
Cover                          : Yes
Rating                         : None
GenreID                        : 1614
AppleStoreCountry              : Canada
AlbumTitleID                   : 463009
AppleStoreCatalogID            : 1732433707

Video
ID                             : 2
Format                         : AVC
Format/Info                    : Advanced Video Codec
Format profile                 : High@L4
Format settings                : CABAC / 5 Ref Frames
Format settings, CABAC         : Yes
Format settings, Reference fra : 5 frames
Codec ID                       : avc1
Codec ID/Info                  : Advanced Video Coding
Duration                       : 3 min 17 s
Bit rate                       : 6 514 kb/s
Maximum bit rate               : 15.1 Mb/s
Width                          : 1 920 pixels
Height                         : 816 pixels
Display aspect ratio           : 2.35:1
Frame rate mode                : Constant
Frame rate                     : 23.976 (24000/1001) FPS
Color space                    : YUV
Chroma subsampling             : 4:2:0
Bit depth                      : 8 bits
Scan type                      : Progressive
Bits/(Pixel*Frame)             : 0.173
Stream size                    : 153 MiB (96%)
Title                          : Core Media Video
Encoded date                   : UTC 2024-03-01 00:21:32
Tagged date                    : UTC 2024-03-13 08:41:04
Color range                    : Limited
Color primaries                : BT.709
Transfer characteristics       : BT.709
Matrix coefficients            : BT.709
Codec configuration box        : avcC

Audio
ID                             : 1
Format                         : AAC LC
Format/Info                    : Advanced Audio Codec Low Complexity
Codec ID                       : mp4a-40-2
Duration                       : 3 min 17 s
Duration_LastFrame             : -3 ms
Bit rate mode                  : Variable
Bit rate                       : 272 kb/s
Maximum bit rate               : 312 kb/s
Channel(s)                     : 2 channels
Channel layout                 : L R
Sampling rate                  : 48.0 kHz
Frame rate                     : 46.875 FPS (1024 SPF)
Compression mode               : Lossy
Stream size                    : 6.39 MiB (4%)
Title                          : Core Media Audio
Encoded date                   : UTC 2024-03-01 00:14:32
Tagged date                    : UTC 2024-03-13 08:41:04
</pre>
</div>
<div class="bbCodeBlock bbCodeVfcHH HiddenContent">
<div class="attribution type">Hidden Content:</div>
<blockquote>You must reply before you can see the hidden data contained here.</blockquote>
</div>
<div class="messageTextEndMarker">&nbsp;</div>
</blockquote>
</article>]]></description>
                <author><![CDATA[abby0511]]></author>
                </item>

                </channel></rss>